<?xml version="1.0" encoding="UTF-8"?>
<svg id="Ebene_1" data-name="Ebene 1" xmlns="http://www.w3.org/2000/svg" version="1.1" viewBox="0 0 16 16">
  <defs>
    <style>
      .cls-1 {
        fill: #fff;
        fill-rule: evenodd;
        stroke-width: 0px;
      }
    </style>
  </defs>
  <path class="cls-1" d="M2.5,12c0-.3.2-.5.5-.5h10c.3,0,.5.2.5.5s-.2.5-.5.5H3c-.3,0-.5-.2-.5-.5M2.5,8c0-.3.2-.5.5-.5h10c.3,0,.5.2.5.5s-.2.5-.5.5H3c-.3,0-.5-.2-.5-.5M2.5,4c0-.3.2-.5.5-.5h10c.3,0,.5.2.5.5s-.2.5-.5.5H3c-.3,0-.5-.2-.5-.5"/>
</svg>