<?xml version="1.0" encoding="UTF-8"?>
<svg id="Ebene_1" data-name="Ebene 1" xmlns="http://www.w3.org/2000/svg" version="1.1" viewBox="0 0 16 16">
  <defs>
    <style>
      .cls-1 {
        fill: #fff;
        stroke-width: 0px;
      }
    </style>
  </defs>
  <path class="cls-1" d="M8,8c1.7,0,3-1.3,3-3s-1.3-3-3-3-3,1.3-3,3,1.3,3,3,3M10,5c0,1.1-.9,2-2,2s-2-.9-2-2,.9-2,2-2,2,.9,2,2M14,13c0,1-1,1-1,1H3s-1,0-1-1,1-4,6-4,6,3,6,4M13,13c0-.2-.2-1-.8-1.7s-1.9-1.3-4.2-1.3-3.5.7-4.2,1.3c-.7.7-.8,1.4-.8,1.7h10Z"/>
</svg>