<?xml version="1.0" encoding="UTF-8"?>
<svg id="Ebene_1" data-name="Ebene 1" xmlns="http://www.w3.org/2000/svg" version="1.1" viewBox="0 0 16 16">
  <defs>
    <style>
      .cls-1 {
        fill: #32a05f;
        stroke-width: 0px;
      }
    </style>
  </defs>
  <path class="cls-1" d="M4.6,4.6c.2-.2.5-.2.7,0,0,0,0,0,0,0l2.6,2.6,2.6-2.6c.2-.2.5-.2.7,0s.2.5,0,.7l-2.6,2.6,2.6,2.6c.2.2.2.5,0,.7s-.5.2-.7,0l-2.6-2.6-2.6,2.6c-.2.2-.5.2-.7,0s-.2-.5,0-.7l2.6-2.6-2.6-2.6c-.2-.2-.2-.5,0-.7,0,0,0,0,0,0"/>
</svg>